<svg xmlns="http://www.w3.org/2000/svg" xmlns:xlink="http://www.w3.org/1999/xlink" viewBox="0 0 1432.93 939.5"><defs><style>.cls-1{fill:none;}.cls-2{isolation:isolate;}.cls-3{clip-path:url(#clip-path);}.cls-4{clip-path:url(#clip-path-2);}.cls-5{fill:url(#Sfumatura_senza_nome_2);}.cls-6{fill:#73a6e6;}.cls-7{fill:#5d8dcf;}.cls-8{opacity:0.8;fill:url(#Sfumatura_senza_nome_3);}.cls-9{fill:#16292b;}.cls-10{fill:#93f5e5;}.cls-11{fill:#5dc2ae;}.cls-12{fill:#164377;}.cls-13{fill:#105697;}.cls-14{fill:#01b59c;}.cls-15{fill:#fff;}.cls-16{fill:#d2d3d3;}.cls-17{opacity:0.21;mix-blend-mode:multiply;}.cls-18{fill:#182b3a;}.cls-19{fill:#27528c;}</style><clipPath id="clip-path" transform="translate(-637.1 -291.67)"><rect class="cls-1" width="1920" height="1080"/></clipPath><clipPath id="clip-path-2" transform="translate(-637.1 -291.67)"><path class="cls-1" d="M1766.57,445.66c-50.91-6.68-108.16-9.35-147.66,23.46-34.38,28.56-46.48,77.48-80.69,106.24-37.62,31.62-91.44,31.24-140.3,36.51-53.91,5.82-111.77,24-140.73,69.8-19.06,30.17-23.38,69.27-48.13,95-40,41.58-109.65,27.45-163,49.4-57.3,23.56-90,94.66-70.54,153.49,11.3,34.21,36.9,61.81,64.47,85a467.72,467.72,0,0,0,189.71,96.18c87.61,21.33,179.09,16.82,269.25,15.41,109.41-1.7,219.73,1.29,327.23-19.08,55-10.43,110-27.5,155.09-60.75,60.19-44.41,97-113.2,127.73-181.42,12.26-27.25,24.07-55.79,23.71-85.67-.64-54-39.66-98.45-65.29-145.94A315,315,0,0,1,2032,570.87c-2.66-22.57,4-55.85-16.36-71.39-27.32-20.79-83.9-24.19-117-31.19Q1833.1,454.4,1766.57,445.66Z"/></clipPath><linearGradient id="Sfumatura_senza_nome_2" x1="265.56" y1="895.16" x2="479.2" y2="38.89" gradientTransform="matrix(1, 0, 0, -1, 977.18, 1368.41)" gradientUnits="userSpaceOnUse"><stop offset="0" stop-color="#16292b"/><stop offset="1" stop-color="#406eae"/></linearGradient><linearGradient id="Sfumatura_senza_nome_3" x1="-430.8" y1="898.58" x2="532.01" y2="898.58" gradientTransform="matrix(-1, 0, 0, 1, 1613.57, 0)" gradientUnits="userSpaceOnUse"><stop offset="0.03" stop-color="#16292b"/><stop offset="1" stop-color="#406eae"/></linearGradient></defs><g class="cls-2"><g id="template"><g class="cls-3"><g class="cls-4"><rect class="cls-5" x="637.1" y="291.67" width="1316.54" height="785.06" transform="translate(1953.64 1076.74) rotate(-180)"/></g><circle class="cls-6" cx="1924.21" cy="406.95" r="24.95" transform="translate(-361.27 1188.14) rotate(-45)"/><path class="cls-6" d="M920.85,1060.67A116.92,116.92,0,0,1,1049,932.25,56,56,0,0,1,1148.18,911a85.25,85.25,0,0,1,58.67,22.45,32.35,32.35,0,0,1,55.69,15.71,45.29,45.29,0,0,1,57.5-5.44,56,56,0,0,1,97.55,5,72.49,72.49,0,0,1,88.79-4.32,32.37,32.37,0,0,1,60.63.32,56,56,0,0,1,63.87-15.05,56,56,0,0,1,66.35-32.2,117,117,0,0,1,61.13-53.74,36.53,36.53,0,0,1,16.58-50.16,56,56,0,0,1,2.52-88,32.39,32.39,0,0,1-15.93-59.06,32.36,32.36,0,0,1,28.33-56.27,56.91,56.91,0,0,1,31.42-80.55,45.33,45.33,0,1,1,88-.45l137.85,39.06-60.06,560.75L1027,1198.8l4-33.56A116.89,116.89,0,0,1,920.85,1060.67Z" transform="translate(-637.1 -291.67)"/><rect class="cls-7" x="1763.88" y="695.08" width="31.99" height="570.11" transform="translate(3118.89 215.64) rotate(137.7)"/><rect class="cls-7" x="1746.84" y="718.62" width="14.31" height="570.11" transform="translate(3089.71 274.01) rotate(137.7)"/><rect class="cls-7" x="1798.59" y="671.54" width="14.31" height="570.11" transform="translate(3148.05 157.25) rotate(137.7)"/><path class="cls-7" d="M850.91,1032.32a50.22,50.22,0,0,1,78.86-43,97.92,97.92,0,0,1,142.6,11.94,98,98,0,0,1,66.13-19.88,28.84,28.84,0,0,1,52.26-12.75,50.18,50.18,0,0,1,66.36-5.55,50.2,50.2,0,0,1,82.79,32.48c1.08-.55,2.18-1.08,3.32-1.55a50.05,50.05,0,0,1,36.28-1A34.77,34.77,0,0,1,1437.78,971a50.22,50.22,0,0,1,77.76,18.82,56.53,56.53,0,0,1,43-3.62,82.11,82.11,0,0,1,111.79-50.12A27.29,27.29,0,0,1,1701.13,911a37,37,0,0,1,41-20.09,50.26,50.26,0,0,1,27.7-39.61,50.15,50.15,0,0,1,4.78-44.14,20.06,20.06,0,0,1,7.92-33.92,34.7,34.7,0,0,1,6.72-53.31,50.21,50.21,0,0,1,14.08-77.07,28.87,28.87,0,0,1,20.53-48c.64,0,1.26,0,1.89,0a56.55,56.55,0,0,1,32-68.49,98,98,0,1,1,83.8,76.18L1969.66,956l-244.05,240.34L913.7,1179.29,895,1080.35A50.21,50.21,0,0,1,850.91,1032.32Z" transform="translate(-637.1 -291.67)"/><path class="cls-8" d="M1082.36,1110.38a100.85,100.85,0,0,1,108.15-113.06,48.33,48.33,0,0,1,85.19-20.08,73.44,73.44,0,0,1,51,18.29,27.91,27.91,0,0,1,48.31,12.54,39.07,39.07,0,0,1,49.48-5.72,48.32,48.32,0,0,1,84.22,2.51,62.54,62.54,0,0,1,76.49-5.32,27.91,27.91,0,0,1,52.28-.82,48.32,48.32,0,0,1,54.81-14.13,48.34,48.34,0,0,1,56.64-29,100.87,100.87,0,0,1,51.74-47.45,31.53,31.53,0,0,1,13.39-43.55,48.3,48.3,0,0,1,.59-75.9,27.95,27.95,0,0,1-14.81-50.65,27.91,27.91,0,0,1,23.42-49,49.08,49.08,0,0,1,25.64-70,40,40,0,0,1-1.09-5.44,39.1,39.1,0,1,1,77,3.47l119.58,31.2-41.67,484.64-826.33,94.7,2.8-29A100.81,100.81,0,0,1,1082.36,1110.38Z" transform="translate(-637.1 -291.67)"/><path class="cls-9" d="M1115.77,1114.24a41.91,41.91,0,0,1,62-42.23,81.73,81.73,0,0,1,119.43-1.78,81.36,81.36,0,0,1,44.77-21.23,82.85,82.85,0,0,1,8.54-.71,24.07,24.07,0,0,1,42.36-14.88,41.89,41.89,0,0,1,54.67-10.05,41.89,41.89,0,0,1,71.43,20.18c.85-.55,1.72-1.07,2.63-1.56a41.78,41.78,0,0,1,30-3.82,29,29,0,0,1,46.6-23,41.91,41.91,0,0,1,66.14,9.25,47.16,47.16,0,0,1,35.4-6.53,68.54,68.54,0,0,1,88.74-50.81,23,23,0,0,1,19.89-23.16,22.73,22.73,0,0,1,3.67-.18,31,31,0,0,1,24.93-20,30.42,30.42,0,0,1,7.44-.08,42,42,0,0,1,19.75-35.18,41.88,41.88,0,0,1,.36-37,16.75,16.75,0,0,1,3.79-28.83,29,29,0,0,1,1.2-44.84,41.9,41.9,0,0,1,5.38-65.16A24.1,24.1,0,0,1,1888,671c.52-.08,1-.1,1.57-.14a47.18,47.18,0,0,1,20.93-59.51,81.67,81.67,0,1,1,75.87,56.41l52.41,291.3-183,219.66L1180,1231.18l-23.63-80.66A41.92,41.92,0,0,1,1115.77,1114.24Z" transform="translate(-637.1 -291.67)"/><path class="cls-10" d="M1614.54,784.46A196.47,196.47,0,0,1,1625.82,763c4.34-7.16,9.31-14.89,10.18-22.92l17.62,14.53a2.85,2.85,0,0,1,.56.47c4.66,5.12-11,26.9-34.85,48.65-2.21,2-4.41,3.94-6.58,5.79a23.65,23.65,0,0,1-2.32-8.36C1610,795.35,1612.18,789.73,1614.54,784.46Z" transform="translate(-637.1 -291.67)"/><path class="cls-11" d="M1567.61,833.8a2.83,2.83,0,0,1-.41-.61l-50.13-74,67.6-61.51L1636,740c-.87,8-5.84,15.76-10.18,22.92a196.47,196.47,0,0,0-11.28,21.51c-2.36,5.27-4.52,10.89-4.11,16.65a23.65,23.65,0,0,0,2.32,8.36C1591.31,827.76,1571.84,838.44,1567.61,833.8Z" transform="translate(-637.1 -291.67)"/><path class="cls-12" d="M1519.93,554.09c30.45,37.41,62.52,73.66,101.65,101.58,15.66,11.17,32.52,21,50.94,26.55a102,102,0,0,0,39.77,4.14l24.56,28.73h0c-20.48,18.64-49.56,21.91-70.39,7.78l-190.19-129Z" transform="translate(-637.1 -291.67)"/><path class="cls-13" d="M1672.52,682.22c-18.42-5.55-35.28-15.38-50.94-26.55-39.13-27.92-71.2-64.17-101.65-101.58l3.21-2.92c22.87-20.8,56.76-19.71,75.5,2.22l113.65,133A102,102,0,0,1,1672.52,682.22Z" transform="translate(-637.1 -291.67)"/><path class="cls-13" d="M1418.18,771.85l-59-55.72a56.44,56.44,0,0,1,17.86-32l46.87-42.64,106.75,194.57c-16.82-.78-33.68-6.09-48.66-14C1458,809.35,1437.92,790.48,1418.18,771.85Z" transform="translate(-637.1 -291.67)"/><path class="cls-12" d="M1359.15,716.13l59,55.72c19.74,18.63,39.8,37.5,63.79,50.2,15,7.92,31.84,13.23,48.66,14l3.8,6.92c12.11,22.07,6.12,50.72-14.37,69.35l-148-152.82A49.53,49.53,0,0,1,1359.15,716.13Z" transform="translate(-637.1 -291.67)"/><path class="cls-1" d="M1531.19,790.22a72.41,72.41,0,0,1-10.32,3.88A72.41,72.41,0,0,0,1531.19,790.22Z" transform="translate(-637.1 -291.67)"/><path class="cls-1" d="M1551.26,778.73q-4.27,2.87-8.37,5.3Q1547,781.6,1551.26,778.73Z" transform="translate(-637.1 -291.67)"/><path class="cls-1" d="M1542.89,784q-4.08,2.41-7.93,4.37Q1538.8,786.45,1542.89,784Z" transform="translate(-637.1 -291.67)"/><path class="cls-10" d="M1593.88,741.68c14.79-16.26,24.67-31.93,26.95-42.68L1632,713.83c4.2,5.36-.12,17.35-10.19,31.52a57.08,57.08,0,0,0-13.75-3.27A128.68,128.68,0,0,0,1593.88,741.68Z" transform="translate(-637.1 -291.67)"/><path class="cls-14" d="M1531.19,790.22c1.23-.57,2.48-1.17,3.77-1.82q3.84-1.95,7.93-4.37t8.37-5.3a234.6,234.6,0,0,0,26.39-20.86c5.88-5.36,11.32-10.81,16.23-16.19a128.68,128.68,0,0,1,14.17.4,57.08,57.08,0,0,1,13.75,3.27A197.57,197.57,0,0,1,1594.12,776c-27.91,25.39-57.13,39.73-65.43,31.85L1515,795.31a38.49,38.49,0,0,0,5.9-1.21A72.41,72.41,0,0,0,1531.19,790.22Z" transform="translate(-637.1 -291.67)"/><path class="cls-15" d="M1574.64,740.34c-13-2.9-23.77-11.5-34-20a1448.36,1448.36,0,0,1-181-179.79q5.74-4.58,11.4-9.71c20.53-18.68,35.84-39.37,44.23-56.78,45.84,28.83,84.4,64,113.35,102.48L1620.83,699c-2.28,10.75-12.16,26.42-26.95,42.68C1587.4,741.72,1580.94,741.75,1574.64,740.34Z" transform="translate(-637.1 -291.67)"/><path class="cls-16" d="M1310.41,569.54c14.81-5.48,32.22-15.36,49.3-29a1448.36,1448.36,0,0,0,181,179.79c10.2,8.48,21,17.08,34,20,6.3,1.41,12.76,1.38,19.24,1.34-4.91,5.38-10.35,10.83-16.23,16.19a234.6,234.6,0,0,1-26.39,20.86q-4.27,2.87-8.37,5.3T1535,788.4c-1.29.65-2.54,1.25-3.77,1.82a72.41,72.41,0,0,1-10.32,3.88,38.49,38.49,0,0,1-5.9,1.21L1401.76,692C1366.2,659.6,1334.8,617.9,1310.41,569.54Z" transform="translate(-637.1 -291.67)"/><path class="cls-11" d="M1359.71,540.57a1447.33,1447.33,0,0,1-97.58-129.8,497.06,497.06,0,0,1,153.21,63.31c-8.39,17.41-23.7,38.1-44.23,56.78Q1365.47,536,1359.71,540.57Z" transform="translate(-637.1 -291.67)"/><path class="cls-14" d="M1310.41,569.54a497.12,497.12,0,0,1-48.64-158.86h0l.36.09a1447.33,1447.33,0,0,0,97.58,129.8C1342.63,554.18,1325.22,564.06,1310.41,569.54Z" transform="translate(-637.1 -291.67)"/><path class="cls-17" d="M1381,616.62a61.66,61.66,0,1,1,15.72,47.81A61.46,61.46,0,0,1,1381,616.62Z" transform="translate(-637.1 -291.67)"/><path class="cls-14" d="M1433.13,632.14c-21.18-3.29-40.21-15.68-54.39-31.8a61.66,61.66,0,0,1,122.36-2.54,79.28,79.28,0,0,1-8.08,12.87C1479.21,628.08,1455.09,635.55,1433.13,632.14Z" transform="translate(-637.1 -291.67)"/><path class="cls-14" d="M1378.74,600.34c14.18,16.12,33.21,28.51,54.39,31.8,22,3.41,46.08-4.06,59.89-21.47a79.28,79.28,0,0,0,8.08-12.87,61.66,61.66,0,1,1-122.36,2.54Z" transform="translate(-637.1 -291.67)"/><path class="cls-15" d="M1399.82,580.33l80.34-.23a47.17,47.17,0,0,1,4.56,8.69l-89.4.27A47.79,47.79,0,0,1,1399.82,580.33Z" transform="translate(-637.1 -291.67)"/><path class="cls-18" d="M1395.32,589.06l89.4-.27a47.81,47.81,0,0,1,3.15,12.68l-95.63.28A47.84,47.84,0,0,1,1395.32,589.06Z" transform="translate(-637.1 -291.67)"/><path class="cls-18" d="M1407.71,571.09a48.1,48.1,0,0,1,72.45,9l-80.34.23A48,48,0,0,1,1407.71,571.09Z" transform="translate(-637.1 -291.67)"/><path class="cls-15" d="M1413.21,646.54l54-.16A48.12,48.12,0,0,1,1413.21,646.54Z" transform="translate(-637.1 -291.67)"/><path class="cls-18" d="M1404.5,639a48.35,48.35,0,0,1-8.5-13.12l88.25-.26a48,48,0,0,1-11.82,16.58,49.08,49.08,0,0,1-5.27,4.16l-54,.16A48.18,48.18,0,0,1,1404.5,639Z" transform="translate(-637.1 -291.67)"/><path class="cls-15" d="M1392.24,601.75l95.63-.28a48.27,48.27,0,0,1-3.62,24.17l-88.25.26A48.15,48.15,0,0,1,1392.24,601.75Z" transform="translate(-637.1 -291.67)"/><circle class="cls-6" cx="956.17" cy="877.22" r="20.5" transform="translate(-911.63 996.85) rotate(-61.01)"/><path class="cls-6" d="M1172.28,864.58a6.69,6.69,0,1,0,6.68-6.69A6.67,6.67,0,0,0,1172.28,864.58Z" transform="translate(-637.1 -291.67)"/><path class="cls-6" d="M1736.62,547.74a10.7,10.7,0,1,0,10.69-10.7A10.69,10.69,0,0,0,1736.62,547.74Z" transform="translate(-637.1 -291.67)"/><path class="cls-6" d="M1832.16,405.92A16.88,16.88,0,1,0,1849,389,16.87,16.87,0,0,0,1832.16,405.92Z" transform="translate(-637.1 -291.67)"/><circle class="cls-7" cx="1314.52" cy="895.74" r="24.91" transform="translate(-893.75 852.57) rotate(-43.26)"/><path class="cls-7" d="M1685.77,820.94a11.69,11.69,0,1,0,12-11.4A11.69,11.69,0,0,0,1685.77,820.94Z" transform="translate(-637.1 -291.67)"/><circle class="cls-7" cx="1528.39" cy="883.73" r="6.61" transform="translate(-801.88 91.92) rotate(-13.58)"/><path class="cls-7" d="M1699.59,761.46a6.61,6.61,0,1,0,6.77-6.44A6.6,6.6,0,0,0,1699.59,761.46Z" transform="translate(-637.1 -291.67)"/><circle class="cls-19" cx="1859.72" cy="521.73" r="18.3" transform="translate(-696.96 444.5) rotate(-22.05)"/><path class="cls-19" d="M1820.34,695.68a7.62,7.62,0,1,0,7.81-7.43A7.63,7.63,0,0,0,1820.34,695.68Z" transform="translate(-637.1 -291.67)"/><path class="cls-19" d="M1186.9,998.35a18.3,18.3,0,1,0,18.75-17.84A18.3,18.3,0,0,0,1186.9,998.35Z" transform="translate(-637.1 -291.67)"/><circle class="cls-19" cx="1082.55" cy="940.86" r="6.61" transform="translate(-838.69 10.33) rotate(-14.54)"/><circle class="cls-19" cx="1004.87" cy="997.92" r="9.15" transform="translate(-935.67 152.48) rotate(-21.78)"/><circle class="cls-19" cx="1770.71" cy="872.43" r="25.42" transform="translate(-83.29 2135.02) rotate(-78.17)"/><path class="cls-19" d="M1657.49,968.28a11.18,11.18,0,1,0,11.46-10.9A11.18,11.18,0,0,0,1657.49,968.28Z" transform="translate(-637.1 -291.67)"/><path class="cls-19" d="M1593.23,955.51a8.64,8.64,0,1,1,8.43,8.85A8.64,8.64,0,0,1,1593.23,955.51Z" transform="translate(-637.1 -291.67)"/></g></g></g></svg>